<mxfile host="app.diagrams.net" agent="Mozilla/5.0 (Windows NT 10.0; Win64; x64) AppleWebKit/537.36 (KHTML, like Gecko) Chrome/136.0.0.0 Safari/537.36" version="27.0.9">
  <diagram name="Página-1" id="8dqNt7fCDWXGeDZh-Bqt">
    <mxGraphModel dx="517" dy="187" grid="1" gridSize="10" guides="1" tooltips="1" connect="1" arrows="1" fold="1" page="1" pageScale="1" pageWidth="827" pageHeight="1169" math="0" shadow="0">
      <root>
        <mxCell id="0" />
        <mxCell id="1" parent="0" />
        <mxCell id="zhd2SWeFOq5yDtBIlxi7-1" value="Terminal / Entrada&lt;div&gt;#E77F67&lt;/div&gt;" style="strokeWidth=2;html=1;shape=mxgraph.flowchart.terminator;whiteSpace=wrap;strokeColor=none;fillColor=light-dark(#FFFFFF,#E77F67);" vertex="1" parent="1">
          <mxGeometry x="364" y="40" width="100" height="60" as="geometry" />
        </mxCell>
        <mxCell id="zhd2SWeFOq5yDtBIlxi7-2" value="Terminal / Saída&lt;div&gt;#E15F41&lt;/div&gt;" style="strokeWidth=2;html=1;shape=mxgraph.flowchart.terminator;whiteSpace=wrap;strokeColor=none;fillColor=light-dark(#FFFFFF,#E15F41);" vertex="1" parent="1">
          <mxGeometry x="364" y="120" width="100" height="60" as="geometry" />
        </mxCell>
        <mxCell id="zhd2SWeFOq5yDtBIlxi7-3" value="Entrada manual&lt;div&gt;#EA8685&lt;/div&gt;" style="html=1;strokeWidth=2;shape=manualInput;whiteSpace=wrap;rounded=1;size=26;arcSize=11;strokeColor=none;fillColor=light-dark(#FFFFFF,#EA8685);" vertex="1" parent="1">
          <mxGeometry x="364" y="190" width="100" height="60" as="geometry" />
        </mxCell>
        <mxCell id="zhd2SWeFOq5yDtBIlxi7-4" value="Processamento&lt;div&gt;#E66767&lt;/div&gt;" style="rounded=1;whiteSpace=wrap;html=1;absoluteArcSize=1;arcSize=14;strokeWidth=2;strokeColor=none;fillColor=light-dark(#FFFFFF,#E66767);" vertex="1" parent="1">
          <mxGeometry x="364" y="280" width="100" height="100" as="geometry" />
        </mxCell>
        <mxCell id="zhd2SWeFOq5yDtBIlxi7-5" value="Exibição&lt;div&gt;#CF6A87&lt;/div&gt;" style="strokeWidth=2;html=1;shape=mxgraph.flowchart.display;whiteSpace=wrap;strokeColor=none;fillColor=light-dark(#FFFFFF,#CF6A87);" vertex="1" parent="1">
          <mxGeometry x="360" y="400" width="100" height="60" as="geometry" />
        </mxCell>
        <mxCell id="zhd2SWeFOq5yDtBIlxi7-6" value="Decisão&lt;div&gt;#C44569&lt;/div&gt;" style="strokeWidth=2;html=1;shape=mxgraph.flowchart.decision;whiteSpace=wrap;strokeColor=none;fillColor=light-dark(#FFFFFF,#C44569);" vertex="1" parent="1">
          <mxGeometry x="364" y="485" width="100" height="100" as="geometry" />
        </mxCell>
        <mxCell id="zhd2SWeFOq5yDtBIlxi7-7" value="Preparação&lt;div&gt;#596275&lt;/div&gt;" style="verticalLabelPosition=bottom;verticalAlign=top;html=1;shape=hexagon;perimeter=hexagonPerimeter2;arcSize=6;size=0.27;strokeColor=none;fillColor=light-dark(#FFFFFF,#596275);" vertex="1" parent="1">
          <mxGeometry x="364" y="600" width="100" height="60" as="geometry" />
        </mxCell>
        <mxCell id="zhd2SWeFOq5yDtBIlxi7-8" value="Processo predefinido&lt;div&gt;#303952&lt;/div&gt;" style="verticalLabelPosition=bottom;verticalAlign=top;html=1;shape=process;whiteSpace=wrap;rounded=1;size=0.14;arcSize=6;strokeColor=default;fillColor=light-dark(#FFFFFF,#303952);" vertex="1" parent="1">
          <mxGeometry x="364" y="710" width="100" height="60" as="geometry" />
        </mxCell>
        <mxCell id="zhd2SWeFOq5yDtBIlxi7-9" value="Conector&lt;div&gt;#FFC312&lt;/div&gt;" style="verticalLabelPosition=bottom;verticalAlign=top;html=1;shape=mxgraph.flowchart.on-page_reference;strokeColor=none;fillColor=light-dark(#FFFFFF,#FFC312);" vertex="1" parent="1">
          <mxGeometry x="404" y="830" width="20" height="20" as="geometry" />
        </mxCell>
        <mxCell id="zhd2SWeFOq5yDtBIlxi7-11" value="#1289A7" style="swimlane;fontStyle=1;align=center;verticalAlign=top;childLayout=stackLayout;horizontal=1;startSize=26;horizontalStack=0;resizeParent=1;resizeParentMax=0;resizeLast=0;collapsible=1;marginBottom=0;whiteSpace=wrap;html=1;fillColor=light-dark(#FFFFFF,#1289A7);" vertex="1" parent="1">
          <mxGeometry x="520" y="40" width="160" height="104" as="geometry" />
        </mxCell>
        <mxCell id="zhd2SWeFOq5yDtBIlxi7-12" value="&lt;font style=&quot;color: light-dark(rgb(0, 0, 0), rgb(255, 255, 255));&quot;&gt;#0652DD&lt;/font&gt;" style="text;strokeColor=#005700;fillColor=light-dark(#008A00,#0652DD);align=left;verticalAlign=top;spacingLeft=4;spacingRight=4;overflow=hidden;rotatable=0;points=[[0,0.5],[1,0.5]];portConstraint=eastwest;whiteSpace=wrap;html=1;fontColor=#ffffff;" vertex="1" parent="zhd2SWeFOq5yDtBIlxi7-11">
          <mxGeometry y="26" width="160" height="44" as="geometry" />
        </mxCell>
        <mxCell id="zhd2SWeFOq5yDtBIlxi7-13" value="" style="line;strokeWidth=1;fillColor=none;align=left;verticalAlign=middle;spacingTop=-1;spacingLeft=3;spacingRight=3;rotatable=0;labelPosition=right;points=[];portConstraint=eastwest;strokeColor=inherit;" vertex="1" parent="zhd2SWeFOq5yDtBIlxi7-11">
          <mxGeometry y="70" width="160" height="8" as="geometry" />
        </mxCell>
        <mxCell id="zhd2SWeFOq5yDtBIlxi7-14" value="#1B1464" style="text;strokeColor=none;fillColor=light-dark(#FFFFFF,#1B1464);align=left;verticalAlign=top;spacingLeft=4;spacingRight=4;overflow=hidden;rotatable=0;points=[[0,0.5],[1,0.5]];portConstraint=eastwest;whiteSpace=wrap;html=1;" vertex="1" parent="zhd2SWeFOq5yDtBIlxi7-11">
          <mxGeometry y="78" width="160" height="26" as="geometry" />
        </mxCell>
      </root>
    </mxGraphModel>
  </diagram>
</mxfile>
